<svg width="17" height="15" viewBox="0 0 17 15" fill="none" xmlns="http://www.w3.org/2000/svg">
<path d="M11.1085 3.00205L10.7708 2.69259L10.433 3.00206L2.31629 10.4387C1.98841 10.7392 1.75098 11.1202 1.63547 11.5435L1.13174 13.3895L0.911974 14.1949L1.72574 14.0085L3.74065 13.547C4.18016 13.4464 4.5863 13.2371 4.91387 12.937L4.91389 12.937L13.0303 5.50006L13.4326 5.13139L13.0303 4.76275L11.1085 3.00205ZM11.3939 2.12166L10.9914 2.49032L11.3939 2.85904L13.3156 4.61973L13.6532 4.92905L13.991 4.61987L14.9526 3.73966L14.9527 3.73951C15.6998 3.05506 15.6998 1.92568 14.9527 1.24123C14.2308 0.579838 13.077 0.579838 12.3551 1.24123L11.3939 2.12166ZM15.2382 1.09808C16.0834 1.87245 16.0834 3.1083 15.2382 3.88267L5.19936 13.0802C4.83021 13.4184 4.36338 13.662 3.84701 13.7803L0.733342 14.4935C0.648886 14.5128 0.57879 14.4863 0.53742 14.4484C0.49836 14.4126 0.49641 14.3826 0.503273 14.3575L1.28169 11.5047C1.40515 11.0523 1.66198 10.6335 2.03081 10.2956L12.0697 1.09808C12.94 0.300641 14.3678 0.300641 15.2382 1.09808Z" fill="#212121" stroke="white"/>
</svg>
