<svg width="28" height="29" viewBox="0 0 28 29" fill="none" xmlns="http://www.w3.org/2000/svg">
<path d="M8.51254 14.25C8.51254 15.2338 7.7503 16.0312 6.81004 16.0312C5.86979 16.0312 5.10754 15.2338 5.10754 14.25C5.10754 13.2663 5.86979 12.4688 6.81004 12.4688C7.7503 12.4688 8.51254 13.2663 8.51254 14.25Z" fill="white"/>
<path d="M15.3225 14.25C15.3225 15.2338 14.5603 16.0312 13.62 16.0312C12.6797 16.0312 11.9175 15.2338 11.9175 14.25C11.9175 13.2663 12.6797 12.4688 13.62 12.4688C14.5603 12.4688 15.3225 13.2663 15.3225 14.25Z" fill="white"/>
<path d="M22.1325 14.25C22.1325 15.2338 21.3703 16.0312 20.43 16.0312C19.4897 16.0312 18.7275 15.2338 18.7275 14.25C18.7275 13.2663 19.4897 12.4688 20.43 12.4688C21.3703 12.4688 22.1325 13.2663 22.1325 14.25Z" fill="white"/>
<path d="M13.62 0C6.09788 0 0 6.37994 0 14.25C0 22.1201 6.09788 28.5 13.62 28.5C21.1422 28.5 27.24 22.1201 27.24 14.25C27.24 6.37994 21.1422 0 13.62 0ZM1.7025 14.25C1.7025 7.36371 7.03815 1.78125 13.62 1.78125C20.2019 1.78125 25.5375 7.36371 25.5375 14.25C25.5375 21.1363 20.2019 26.7188 13.62 26.7188C7.03815 26.7188 1.7025 21.1363 1.7025 14.25Z" fill="white"/>
</svg>
